<?xml version="1.0" encoding="utf-8"?>
<!-- Generator: Adobe Illustrator 25.4.1, SVG Export Plug-In . SVG Version: 6.00 Build 0)  -->
<svg version="1.1" id="Layer_1" xmlns="http://www.w3.org/2000/svg" xmlns:xlink="http://www.w3.org/1999/xlink" x="0px" y="0px"
	 viewBox="0 0 256 256" style="enable-background:new 0 0 256 256;" xml:space="preserve">
<g>
	<polygon points="145.7,239.3 127.1,235.9 121.7,229.4 109.3,230.8 96.6,227.3 91.6,224.1 76.7,206.5 63.7,187.3 48,170.3 
		46.1,164.7 46.2,141.6 45.1,118.5 43.8,95.5 44.4,90 55,75.4 64.6,65.5 65.6,59.3 81.9,31.8 86.2,27.2 108.5,20.7 129.9,12.2 
		138.5,8.8 130.1,6.6 124.5,7.2 103,15.7 80.8,22.1 59.5,31.2 56.1,35.7 37,61.6 39.1,69.7 27.3,78 18.2,93.7 17,98.6 18,121.7 
		17.9,144.8 18.8,167.9 22.2,172.5 35.2,191.7 50.1,209.3 64.7,227.2 69.6,230.5 88.5,236.4 100.6,234.8 106.6,239.2 136.2,249.4 
		142.3,248.2 157.4,244 	"/>
	<g>
		<path d="M239,123l-3.3-26.3l-1.3-4.9l-15.7-20.1l-15.4-20.4l-3.7-4.8l-23.2-6.9l-23.7-5.3l-6.3-1.1l-22,10.5l-22.4,9.6l-4.6,3.2
			L84.7,78.8l-15,21l-1.2,5.9l1.6,26.4l0.6,26.5l2.5,5.4l16.3,19.7l14.7,20.9l4.7,4.2l23.7,5.2l23.3,6.7l5.5-0.5l23.1-7.7l22.7-8.8
			l4.8-4.2l11-21.9l3.6-3l0.9-3.2l11.1-15.9l-0.3-5.6L239,123z M197.2,146.5c0,1.1-0.7,1.9-1.7,2.2L170.8,161l-44.3-2.1
			c-0.7,0.2-1.3,0.7-1.6,1.4l-8.3,22.9c-0.7,2.1-3.7,2.1-5,0.1l-12.1-18.6c-0.2-0.3-0.5-0.6-0.8-0.8L82.1,148
			c-1.9-1.5-1.5-4.4,0.7-4.9l29.9-0.1c0.7-0.2,1.3-0.7,1.6-1.4l4.2-24.1l16.4-35.1c0.4-1,1.3-1.5,2.4-1.4l31.1-6.9l32.9,5.7
			c1.4,0.1,2.1,1.9,1.2,2.8l-12.9,12.6c-0.4,0.4-0.3,1,0.1,1.4l5.4,4.5c0.4,0.3,0.9,0.4,1.3,0.1l7.7-8.4c1.5-1.1,3.9,0.3,3.8,2.3
			l4,21.9L197.2,146.5z"/>
		<path d="M178.9,115.1l-11.3-5.8c-0.1-0.1-0.2-0.2-0.3-0.3l-4.1-10.6c-0.3-0.6-1.1-0.7-1.4-0.1l-3.9,10.6c-0.1,0.1-0.2,0.2-0.3,0.3
			l-10.5,2.3c-0.5,0.2-0.5,1,0,1.4l10.6,6.3c0.1,0.1,0.2,0.2,0.3,0.4l3.7,10.3c0.3,0.6,1.1,0.7,1.4,0.2l3.4-10.2
			c0.1-0.1,0.4-0.1,0.5-0.2l11.8-3C179.5,116.2,179.5,115.5,178.9,115.1z"/>
	</g>
</g>
</svg>
